<svg width="2599.32" height="710.97" viewBox="1164.1 -322.604 2609.32 720.97" xmlns="http://www.w3.org/2000/svg"><style type="text/css">line{stroke:black;stroke-width:1.0;stroke-opacity:1.0;stroke-linecap:round;}</style>
<line x1="1272.1" x2="1265.18" y1="-118.365" y2="-130.425"/>
<line x1="1251.64" x2="1271.32" y1="-126.857" y2="-119.993"/>
<line x1="1268.57" x2="1264.79" y1="-124.615" y2="-122.383"/>
<line x1="1276.26" x2="1281" y1="-127.793" y2="-123.523"/>
<line x1="1275.94" x2="1280.62" y1="-126.207" y2="-122.601"/>
<line x1="1263.85" x2="1236.62" y1="-125.762" y2="-118.394"/>
<line x1="1272.24" x2="1267.71" y1="-122.731" y2="-120.853"/>
<line x1="1268.9" x2="1267.41" y1="-119.754" y2="-121.046"/>
<line x1="1264.24" x2="1248.18" y1="-125.681" y2="-119.132"/>
<line x1="3763.57" x2="3748.37" y1="-8.95318" y2="-8.84789"/>
<line x1="3749.14" x2="3751.34" y1="-5.05585" y2="-5.50866"/>
<line x1="3747.41" x2="3744.53" y1="-4.68004" y2="-7.03903"/>
<line x1="3751.77" x2="3751.29" y1="-7.96037" y2="-5.45011"/>
<line x1="3756.94" x2="3749.71" y1="-9.33764" y2="-7.19874"/>
<line x1="3750.97" x2="3746.9" y1="-3.17756" y2="-6.4597"/>
<line x1="3751.37" x2="3764.41" y1="-7.34887" y2="-7.40886"/>
<line x1="3754.66" x2="3743.28" y1="-8.66249" y2="-4.56604"/>
<line x1="3752.85" x2="3753.7" y1="-9.5036" y2="-6.88445"/>
</svg>
